<?xml version="1.0" encoding="utf-8"?>
<svg version="1.1" xmlns="http://www.w3.org/2000/svg" xmlns:xlink="http://www.w3.org/1999/xlink" x="0px" y="0px"
     fill="black" viewBox="0 0 566.93 566.93" style="enable-background:new 0 0 566.93 566.93;" xml:space="preserve">
	<polygon points="88.02,550.14 300.61,550.48 478.39,547.96 365.23,540.93 429.85,464.26 337.94,532.73 338.61,506.11
		299.11,536.75 282.37,509.46 274.83,510.3 258.43,536.92 211.89,502.43 213.73,533.9 105.59,446.02 178.58,541.94 	"/>
    <path d="M289.17,4.27c-10.38,4.89-25.16,12.17-35.33,26.65c-15.12,21.5-16.95,47.28-18.14,64.06c-1.24,17.44,0.9,22.86-2.69,36.96
		c-5.84,22.95-18.87,27.27-17.25,35.39c4.97,24.76,129.15,34.06,140.21,3.36c3.48-9.67-1.82-29.63-26.75-57.2
		c-21-23.22-29.21-28.32-34.96-42C279.31,35.92,299.61-0.65,289.17,4.27z"/>
    <path d="M262.3,51.91c-8.09-9.52,1.43,6-1.82,21.85c-3.45,16.83-10.44,31.74-11.18,43c-0.76,11.71,0.55,15.35-1.66,24.81
		c-3.6,15.41-11.63,18.31-10.63,23.76c3.06,16.62,79.58,22.86,86.39,2.26c2.15-6.49-6.09-27.18-16.48-38.39
		c-15.28-16.49-17.49-18.58-21.54-28.19C272.85,71.16,269.61,60.52,262.3,51.91z"/>
    <path d="M173.66,134.39c11.56,0,27.85,13.49,37.85,31.13c3.37,5.94,3.76,9.02,3.58,11.42c-1.4,18.83-41.91,34.01-48.38,25.09
		c-2.54-3.51-0.47-11.13,7.68-28.94C180.94,158.75,178.43,142.83,173.66,134.39z"/>
    <path d="M385.31,150.29c-1.28,3.24,2.36,16.02-7.17,31.36c-6.74,10.84-15.27,12.4-14.56,17.02c1.27,8.22,41.72,20.31,40.09,6.27
		C401.67,187.63,387.52,144.72,385.31,150.29z"/>
    <path d="M443.99,412.34l-75.38-47.51c-1.11,2.71-23.29,54.46-73.8,61.76c-49.12,7.1-100.89-31.33-106.42-84.57
		c-5.82-55.98,41.85-105.52,93.12-105.16c33.82,0.24,65.85,22.16,83.3,55.75l79.18-44.66c-0.86-1.87-2.13-4.51-3.8-7.6
		c-25.99-48.11-84.41-85.74-148.55-88.37c-68.01-2.78-114.99,34.92-126.06,44.34c-11.06,9.41-52.2,45.47-62.08,106.11
		c-11.82,72.54,26.13,149.39,91.22,185.93c6.58,3.69,69.1,37.5,140.95,14.57c58.07-18.54,90.77-64.1,99.77-76.65
		c2.6-3.62,4.64-6.72,6.02-8.87"/>
</svg>
